<svg width="21" height="36" viewBox="0 0 21 36" fill="none" xmlns="http://www.w3.org/2000/svg">
<path d="M0.803038 0.792415C0.288853 1.29995 0 1.98823 0 2.70588C0 3.42354 0.288853 4.11182 0.803038 4.61935L14.3796 18.0163L0.803038 31.4133C0.303425 31.9238 0.0269714 32.6074 0.0332205 33.3171C0.0394696 34.0267 0.327922 34.7055 0.836448 35.2073C1.34497 35.7091 2.03289 35.9937 2.75203 35.9999C3.47116 36.0061 4.16399 35.7333 4.68127 35.2403L20.197 19.9298C20.7111 19.4223 21 18.734 21 18.0163C21 17.2987 20.7111 16.6104 20.197 16.1029L4.68127 0.792415C4.16693 0.285032 3.46943 0 2.74216 0C2.01488 0 1.31738 0.285032 0.803038 0.792415Z" fill="#4F91FF"/>
</svg>
