<svg width="24" height="25" viewBox="0 0 24 25" fill="none" xmlns="http://www.w3.org/2000/svg">
<g clip-path="url(#clip0_2007_35)">
<path d="M21.8678 10.2753C21.8678 10.0951 21.8333 9.91667 21.7663 9.75021C21.6993 9.58375 21.6012 9.4325 21.4774 9.30509C21.3536 9.17769 21.2067 9.07663 21.045 9.00768C20.8833 8.93873 20.71 8.90324 20.535 8.90324C20.3599 8.90324 20.1866 8.93873 20.0249 9.00768C19.8632 9.07663 19.7163 9.17769 19.5925 9.30509C19.4688 9.4325 19.3706 9.58375 19.3036 9.75021C19.2366 9.91667 19.2022 10.0951 19.2022 10.2753H21.8678ZM6.94036 10.2753C6.94036 9.91137 6.79994 9.5624 6.54999 9.30509C6.30004 9.04779 5.96104 8.90324 5.60756 8.90324C5.25407 8.90324 4.91507 9.04779 4.66512 9.30509C4.41517 9.5624 4.27475 9.91137 4.27475 10.2753H6.94036ZM21.7249 13.4408C21.9749 13.6981 22.3139 13.8427 22.6674 13.8427C23.021 13.8427 23.36 13.6981 23.61 13.4408C23.86 13.1834 24.0004 12.8344 24.0004 12.4705C24.0004 12.1065 23.86 11.7575 23.61 11.5002L21.7249 13.4408ZM13.0713 2.59199L14.0138 1.62171C13.89 1.49427 13.7431 1.39317 13.5814 1.3242C13.4197 1.25523 13.2463 1.21973 13.0713 1.21973C12.8962 1.21973 12.7229 1.25523 12.5611 1.3242C12.3994 1.39317 12.2525 1.49427 12.1287 1.62171L13.0713 2.59199ZM2.53251 11.5002C2.28253 11.7575 2.14209 12.1065 2.14209 12.4705C2.14209 12.8344 2.28253 13.1834 2.53251 13.4408C2.78249 13.6981 3.12154 13.8427 3.47507 13.8427C3.8286 13.8427 4.16765 13.6981 4.41763 13.4408L2.53251 11.5002ZM7.74004 23.721H18.4025V20.9769H7.74004V23.721ZM21.8678 20.1537V10.2753H19.2022V20.1537H21.8678ZM6.94036 20.1537V10.2753H4.27475V20.1537H6.94036ZM23.61 11.5002L14.0138 1.62171L12.1287 3.56228L21.7249 13.4408L23.61 11.5002ZM12.1287 1.62171L2.53251 11.5002L4.41763 13.4408L14.0138 3.56228L12.1287 1.62171ZM18.4025 23.721C19.3215 23.721 20.2029 23.3451 20.8528 22.6761C21.5027 22.0072 21.8678 21.0998 21.8678 20.1537H19.2022C19.2022 20.3721 19.1179 20.5814 18.9679 20.7358C18.818 20.8902 18.6146 20.9769 18.4025 20.9769V23.721ZM7.74004 20.9769C7.52795 20.9769 7.32455 20.8902 7.17458 20.7358C7.02461 20.5814 6.94036 20.3721 6.94036 20.1537H4.27475C4.27475 21.0998 4.63984 22.0072 5.28971 22.6761C5.93958 23.3451 6.82099 23.721 7.74004 23.721V20.9769Z" fill="white"/>
</g>
<defs>
<clipPath id="clip0_2007_35">
<rect width="24" height="24" fill="white" transform="translate(0 0.219727)"/>
</clipPath>
</defs>
</svg>
