<svg width="26" height="26" viewBox="0 0 26 26" fill="none" xmlns="http://www.w3.org/2000/svg">
<g clip-path="url(#clip0_2007_38)">
<path d="M4.42813 3.4342H5.49962C6.62896 3.4342 7.55473 4.30854 7.63723 5.41645L7.64259 5.57718V20.578C7.64224 21.1184 7.43785 21.6387 7.07031 22.0349C6.70277 22.431 6.19919 22.6738 5.66034 22.7145L5.49962 22.721H4.42813C3.88756 22.7209 3.36696 22.5166 2.97059 22.149C2.57421 21.7815 2.33131 21.2778 2.29051 20.7387L2.28516 20.578V5.57718C2.28516 4.44783 3.15949 3.52207 4.26741 3.43956L4.42813 3.4342ZM10.8571 3.4342H11.9285C13.0579 3.4342 13.9837 4.30854 14.0662 5.41645L14.0715 5.57718V20.578C14.0712 21.1184 13.8668 21.6387 13.4992 22.0349C13.1317 22.431 12.6281 22.6738 12.0893 22.7145L11.9285 22.721H10.8571C10.3165 22.7209 9.79588 22.5166 9.39951 22.149C9.00313 21.7815 8.76023 21.2778 8.71944 20.7387L8.71408 20.578V5.57718C8.71408 4.44783 9.58841 3.52207 10.6963 3.43956L10.8571 3.4342ZM18.3296 5.57718C19.2297 5.57718 20.0526 6.14614 20.3547 7.0194L20.4051 7.18762L23.6356 19.7733C23.7698 20.2968 23.7013 20.8516 23.4438 21.3266C23.1863 21.8017 22.7588 22.1619 22.247 22.3352L22.0927 22.3813L21.0544 22.647C20.5332 22.7802 19.9811 22.7126 19.5073 22.4578C19.0336 22.203 18.6729 21.7795 18.4968 21.2712L18.4464 21.1052L15.2148 8.52055C15.0804 7.99668 15.1491 7.44138 15.407 6.96602C15.665 6.49067 16.0931 6.13043 16.6056 5.95756L16.7588 5.91148L17.796 5.64575C17.9703 5.60046 18.1496 5.57742 18.3296 5.57718ZM5.49962 5.04143H4.42813C4.3028 5.0416 4.18147 5.08562 4.08518 5.16586C3.9889 5.24609 3.92372 5.35749 3.90096 5.48074L3.89239 5.57718V20.578C3.89239 20.8394 4.08204 21.0602 4.3317 21.1052L4.42813 21.1137H5.49962C5.76213 21.1137 5.98179 20.923 6.02679 20.6744L6.03536 20.578V5.57718C6.03519 5.45184 5.99118 5.33052 5.91094 5.23423C5.8307 5.13795 5.7193 5.07277 5.59605 5.05001L5.49962 5.04143ZM11.9285 5.04143H10.8571C10.7317 5.0416 10.6104 5.08562 10.5141 5.16586C10.4178 5.24609 10.3526 5.35749 10.3299 5.48074L10.3213 5.57718V20.578C10.3213 20.8394 10.511 21.0602 10.7606 21.1052L10.8571 21.1137H11.9285C12.1911 21.1137 12.4107 20.923 12.4557 20.6744L12.4643 20.578V5.57718C12.4641 5.45184 12.4201 5.33052 12.3399 5.23423C12.2596 5.13795 12.1482 5.07277 12.025 5.05001L11.9285 5.04143ZM18.3307 7.18441L18.2632 7.18869L18.1957 7.20262L17.1585 7.46728C17.0383 7.49745 16.9324 7.56847 16.8589 7.66817C16.7854 7.76788 16.7489 7.89005 16.7556 8.01374L16.7717 8.12089L20.0033 20.7055C20.0329 20.8203 20.0998 20.922 20.1934 20.9947C20.2871 21.0675 20.4022 21.107 20.5208 21.1073L20.5883 21.1041L20.6547 21.0912L21.6941 20.8234C21.8153 20.7921 21.9218 20.7194 21.995 20.6178C22.0682 20.5162 22.1035 20.3922 22.0948 20.2673L22.0787 20.173L18.8482 7.58622C18.8184 7.47151 18.7515 7.36988 18.6578 7.2972C18.5642 7.22452 18.4492 7.18486 18.3307 7.18441Z" fill="#CCCCCC"/>
</g>
<defs>
<clipPath id="clip0_2007_38">
<rect width="25.7157" height="25.7157" fill="white" transform="translate(0.14209 0.219727)"/>
</clipPath>
</defs>
</svg>
