<svg width="13" height="14" viewBox="0 0 13 14" fill="none" xmlns="http://www.w3.org/2000/svg">
<path d="M11.9889 13.5085L7.43889 8.95258C7.07778 9.24184 6.6625 9.47085 6.19306 9.63958C5.72361 9.80832 5.22407 9.89269 4.69444 9.89269C3.38241 9.89269 2.27211 9.43758 1.36356 8.52736C0.455 7.61714 0.000481481 6.5054 0 5.19213C0 3.87839 0.454519 2.76665 1.36356 1.85691C2.27259 0.94717 3.38289 0.492059 4.69444 0.491577C6.00648 0.491577 7.11702 0.946688 8.02606 1.85691C8.93509 2.76713 9.38937 3.87887 9.38889 5.19213C9.38889 5.72245 9.30463 6.22264 9.13611 6.6927C8.96759 7.16275 8.73889 7.57857 8.45 7.94015L13 12.4961L11.9889 13.5085ZM4.69444 8.44637C5.59722 8.44637 6.3647 8.1301 6.99689 7.49758C7.62907 6.86505 7.94493 6.09657 7.94444 5.19213C7.94444 4.28818 7.62859 3.51994 6.99689 2.88742C6.36518 2.25489 5.5977 1.93838 4.69444 1.9379C3.79167 1.9379 3.02443 2.25441 2.39272 2.88742C1.76102 3.52042 1.44493 4.28866 1.44444 5.19213C1.44444 6.09609 1.76054 6.86457 2.39272 7.49758C3.02491 8.13058 3.79215 8.44685 4.69444 8.44637Z" fill="white"/>
</svg>
