<svg width="24" height="22" viewBox="0 0 24 22" fill="none" xmlns="http://www.w3.org/2000/svg">
<path d="M21.8363 6.15043V13.1758C21.8366 13.7294 21.7278 14.2777 21.5161 14.7893C21.3043 15.3009 20.9939 15.7657 20.6025 16.1572C20.211 16.5488 19.7463 16.8594 19.2347 17.0712C18.7232 17.283 18.175 17.392 17.6213 17.3919H14.811L12.4929 19.7099C12.4297 19.7769 12.3535 19.8302 12.2689 19.8667C12.1843 19.9031 12.0932 19.922 12.0011 19.922C11.909 19.922 11.8179 19.9031 11.7334 19.8667C11.6488 19.8302 11.5726 19.7769 11.5093 19.7099L9.19131 17.3919H6.37882C5.82521 17.3919 5.27702 17.2828 4.76556 17.0709C4.25411 16.859 3.7894 16.5484 3.39799 16.1569C3.00658 15.7654 2.69612 15.3006 2.48436 14.7891C2.2726 14.2776 2.16368 13.7294 2.16382 13.1758V6.15043C2.16382 5.03254 2.6079 3.96044 3.39836 3.16997C4.18883 2.3795 5.26093 1.93542 6.37882 1.93542H17.6203C18.7381 1.93542 19.8102 2.3795 20.6007 3.16997C21.3912 3.96044 21.8363 5.03254 21.8363 6.15043Z" stroke="#CCCCCC" stroke-width="3" stroke-linecap="round" stroke-linejoin="round"/>
</svg>
