<svg width="21" height="22" viewBox="0 0 21 22" fill="none" xmlns="http://www.w3.org/2000/svg">
<path fill-rule="evenodd" clip-rule="evenodd" d="M10.144 2.34274C9.14476 2.34276 8.17634 2.68892 7.40347 3.32235C6.6306 3.95579 6.10101 4.83738 5.90476 5.8172L4.93859 10.6496C4.65048 12.0924 3.94173 13.4175 2.90168 14.4581L2.59887 14.7593C2.48683 14.8708 2.40675 15.0103 2.36696 15.1632C2.32718 15.3162 2.32915 15.477 2.37267 15.6289C2.41619 15.7808 2.49967 15.9183 2.6144 16.027C2.72914 16.1357 2.87092 16.2116 3.02498 16.2468L4.30645 16.5434C8.14769 17.43 12.1404 17.43 15.9816 16.5434L17.2615 16.2468C17.4154 16.2114 17.557 16.1354 17.6716 16.0267C17.7862 15.9181 17.8697 15.7808 17.9133 15.629C17.9569 15.4772 17.9592 15.3166 17.9198 15.1636C17.8804 15.0107 17.8008 14.8711 17.6892 14.7593L17.3864 14.4581C16.3464 13.4175 15.6376 12.0924 15.3495 10.6496L15.2434 10.1236C15.1823 9.81913 15.2447 9.50287 15.4168 9.2444C15.5889 8.98594 15.8567 8.80643 16.1611 8.74537C16.4656 8.68431 16.7819 8.7467 17.0403 8.91882C17.2988 9.09093 17.4783 9.35868 17.5394 9.66315L17.6455 10.1907C17.8422 11.1803 18.3292 12.0887 19.0425 12.802L19.3453 13.1048C19.7527 13.5119 20.0437 14.0207 20.188 14.5782C20.3323 15.1358 20.3247 15.7219 20.1658 16.2755C20.007 16.8291 19.7028 17.3301 19.2848 17.7263C18.8669 18.1226 18.3504 18.3997 17.7891 18.5288L16.5077 18.8254C15.4135 19.0751 14.3068 19.2624 13.1986 19.3842C13.0502 20.0841 12.6659 20.7118 12.11 21.1622C11.5541 21.6126 10.8603 21.8583 10.1448 21.8583C9.42935 21.8583 8.73559 21.6126 8.17967 21.1622C7.62375 20.7118 7.23942 20.0841 7.09101 19.3842C5.9779 19.263 4.87295 19.0759 3.782 18.8238L2.49898 18.5272C1.9383 18.3975 1.42253 18.1202 1.00514 17.724C0.587751 17.3278 0.283932 16.8272 0.125181 16.274C-0.0335693 15.7208 -0.0414719 15.1353 0.102293 14.578C0.246057 14.0208 0.536256 13.5122 0.942803 13.1048L1.24717 12.8005C1.96048 12.0872 2.44747 11.1772 2.64414 10.1892L3.61187 5.35675C3.79362 4.44874 4.16259 3.58856 4.69526 2.83108C5.22793 2.0736 5.9126 1.43543 6.70562 0.957264C7.49864 0.479102 8.3826 0.171443 9.30114 0.0539057C10.2197 -0.0636319 11.1526 0.0115312 12.0405 0.274602C12.1879 0.318364 12.3252 0.390726 12.4446 0.487555C12.564 0.584385 12.6632 0.703786 12.7364 0.838942C12.8097 0.974097 12.8556 1.12236 12.8716 1.27527C12.8876 1.42817 12.8733 1.58272 12.8295 1.7301C12.7857 1.87748 12.7134 2.01479 12.6165 2.1342C12.5197 2.25361 12.4003 2.35278 12.2652 2.42605C12.13 2.49932 11.9817 2.54524 11.8288 2.56121C11.6759 2.57718 11.5214 2.56287 11.374 2.51911C10.9747 2.40132 10.5604 2.34191 10.144 2.34274Z" fill="white"/>
<path fill-rule="evenodd" clip-rule="evenodd" d="M15.7577 6.32033C16.5856 6.32033 17.3796 5.99143 17.9651 5.406C18.5505 4.82056 18.8794 4.02655 18.8794 3.19862C18.8794 2.37069 18.5505 1.57667 17.9651 0.991232C17.3796 0.405798 16.5856 0.0769043 15.7577 0.0769043C14.9298 0.0769043 14.1357 0.405798 13.5503 0.991232C12.9649 1.57667 12.636 2.37069 12.636 3.19862C12.636 4.02655 12.9649 4.82056 13.5503 5.406C14.1357 5.99143 14.9298 6.32033 15.7577 6.32033Z" fill="white"/>
</svg>
