<svg width="22" height="23" viewBox="0 0 22 23" fill="none" xmlns="http://www.w3.org/2000/svg">
<path d="M11 0C8.86247 0.00406301 6.77224 0.629911 4.98392 1.80131C3.19561 2.97272 1.78639 4.63912 0.927904 6.59754C0.0694236 8.55596 -0.201262 10.7219 0.148818 12.8315C0.498898 14.9411 1.45463 16.9033 2.89961 18.4791C3.93164 19.5983 5.18419 20.4914 6.57833 21.1024C7.97248 21.7133 9.47799 22.0286 11 22.0286C12.522 22.0286 14.0275 21.7133 15.4217 21.1024C16.8158 20.4914 18.0684 19.5983 19.1004 18.4791C20.5454 16.9033 21.5011 14.9411 21.8512 12.8315C22.2013 10.7219 21.9306 8.55596 21.0721 6.59754C20.2136 4.63912 18.8044 2.97272 17.0161 1.80131C15.2278 0.629911 13.1375 0.00406301 11 0ZM11 19.8463C8.71698 19.8428 6.52431 18.9535 4.88338 17.3655C5.38158 16.1522 6.22907 15.1144 7.31819 14.384C8.4073 13.6537 9.68885 13.2637 11 13.2637C12.3112 13.2637 13.5927 13.6537 14.6818 14.384C15.7709 15.1144 16.6184 16.1522 17.1166 17.3655C15.4757 18.9535 13.283 19.8428 11 19.8463ZM8.79581 8.82058C8.79581 8.38444 8.92509 7.9581 9.16729 7.59546C9.40948 7.23283 9.75373 6.95019 10.1565 6.78329C10.5593 6.61639 11.0024 6.57272 11.43 6.6578C11.8576 6.74289 12.2503 6.95291 12.5586 7.2613C12.8669 7.5697 13.0768 7.96262 13.1618 8.39037C13.2469 8.81813 13.2032 9.26151 13.0364 9.66445C12.8696 10.0674 12.5871 10.4118 12.2246 10.6541C11.8621 10.8964 11.4359 11.0257 11 11.0257C10.4154 11.0257 9.85477 10.7934 9.44141 10.3798C9.02804 9.9663 8.79581 9.40542 8.79581 8.82058ZM18.6155 15.436C17.6308 13.751 16.1153 12.4404 14.3063 11.7093C14.8674 11.0728 15.2331 10.2877 15.3593 9.44842C15.4855 8.60912 15.367 7.7512 15.018 6.97762C14.6689 6.20404 14.1041 5.54766 13.3914 5.08723C12.6787 4.6268 11.8484 4.3819 11 4.3819C10.1516 4.3819 9.32126 4.6268 8.60856 5.08723C7.89586 5.54766 7.3311 6.20404 6.98204 6.97762C6.63299 7.7512 6.51447 8.60912 6.6407 9.44842C6.76694 10.2877 7.13257 11.0728 7.69372 11.7093C5.88474 12.4404 4.36922 13.751 3.38454 15.436C2.59978 14.0987 2.18515 12.5764 2.18325 11.0257C2.18325 8.68636 3.11216 6.44281 4.76562 4.78863C6.41908 3.13445 8.66165 2.20514 11 2.20514C13.3383 2.20514 15.5809 3.13445 17.2344 4.78863C18.8878 6.44281 19.8167 8.68636 19.8167 11.0257C19.8149 12.5764 19.4002 14.0987 18.6155 15.436Z" fill="white"/>
</svg>
