<svg width="26" height="26" viewBox="0 0 26 26" fill="none" xmlns="http://www.w3.org/2000/svg">
<path d="M10.9659 3.52118C11.4832 1.38877 14.5167 1.38877 15.034 3.52118C15.1116 3.84152 15.2638 4.13901 15.4781 4.38944C15.6924 4.63986 15.9629 4.83614 16.2674 4.9623C16.5719 5.08847 16.9019 5.14094 17.2305 5.11546C17.5591 5.08998 17.8771 4.98727 18.1585 4.81568C20.0323 3.67418 22.178 5.81873 21.0366 7.69369C20.8652 7.975 20.7627 8.29277 20.7372 8.62118C20.7118 8.94958 20.7642 9.27935 20.8903 9.58368C21.0163 9.88801 21.2123 10.1583 21.4625 10.3726C21.7126 10.5869 22.0098 10.7392 22.3298 10.817C24.4622 11.3343 24.4622 14.3678 22.3298 14.8851C22.0095 14.9627 21.712 15.1149 21.4616 15.3292C21.2111 15.5435 21.0149 15.8139 20.8887 16.1184C20.7625 16.423 20.7101 16.753 20.7355 17.0816C20.761 17.4102 20.8637 17.7282 21.0353 18.0096C22.1768 19.8834 20.0323 22.0291 18.1573 20.8876C17.876 20.7163 17.5582 20.6137 17.2298 20.5883C16.9014 20.5629 16.5717 20.6153 16.2673 20.7413C15.963 20.8673 15.6927 21.0634 15.4784 21.3135C15.2641 21.5637 15.1118 21.8609 15.034 22.1809C14.5167 24.3133 11.4832 24.3133 10.9659 22.1809C10.8883 21.8606 10.7361 21.5631 10.5218 21.3126C10.3075 21.0622 10.0371 20.8659 9.73257 20.7398C9.42806 20.6136 9.09806 20.5611 8.76943 20.5866C8.4408 20.6121 8.12283 20.7148 7.8414 20.8864C5.96766 22.0279 3.8219 19.8834 4.96339 18.0084C5.13473 17.7271 5.23729 17.4093 5.26271 17.0809C5.28813 16.7525 5.2357 16.4227 5.10968 16.1184C4.98367 15.8141 4.78762 15.5438 4.53748 15.3295C4.28734 15.1152 3.99016 14.9629 3.6701 14.8851C1.5377 14.3678 1.5377 11.3343 3.6701 10.817C3.99045 10.7394 4.28794 10.5872 4.53836 10.3729C4.78879 10.1586 4.98507 9.88816 5.11123 9.58364C5.23739 9.27913 5.28987 8.94913 5.26439 8.6205C5.23891 8.29187 5.13619 7.9739 4.9646 7.69248C3.82311 5.81873 5.96766 3.67297 7.84262 4.81446C9.05697 5.55279 10.6308 4.89947 10.9659 3.52118Z" stroke="#CCCCCC" stroke-width="3" stroke-linecap="round" stroke-linejoin="round"/>
<path d="M9.35718 12.8512C9.35718 13.8174 9.741 14.744 10.4242 15.4272C11.1074 16.1104 12.034 16.4942 13.0002 16.4942C13.9664 16.4942 14.8931 16.1104 15.5763 15.4272C16.2595 14.744 16.6433 13.8174 16.6433 12.8512C16.6433 11.885 16.2595 10.9584 15.5763 10.2752C14.8931 9.59195 13.9664 9.20813 13.0002 9.20813C12.034 9.20813 11.1074 9.59195 10.4242 10.2752C9.741 10.9584 9.35718 11.885 9.35718 12.8512Z" stroke="#CCCCCC" stroke-width="3" stroke-linecap="round" stroke-linejoin="round"/>
</svg>
